<svg id="visual" viewBox="0 0 960 540" width="960" height="540" xmlns="http://www.w3.org/2000/svg" xmlns:xlink="http://www.w3.org/1999/xlink" version="1.1"><rect x="0" y="0" width="960" height="540" fill="#ffffff"></rect><path d="M0 341L22.8 342.2C45.7 343.3 91.3 345.7 137 353.8C182.7 362 228.3 376 274 375.5C319.7 375 365.3 360 411.2 360.8C457 361.7 503 378.3 548.8 385C594.7 391.7 640.3 388.3 686 377.7C731.7 367 777.3 349 823 348.7C868.7 348.3 914.3 365.7 937.2 374.3L960 383L960 541L937.2 541C914.3 541 868.7 541 823 541C777.3 541 731.7 541 686 541C640.3 541 594.7 541 548.8 541C503 541 457 541 411.2 541C365.3 541 319.7 541 274 541C228.3 541 182.7 541 137 541C91.3 541 45.7 541 22.8 541L0 541Z" fill="#8a5bff"></path><path d="M0 415L22.8 410C45.7 405 91.3 395 137 397.3C182.7 399.7 228.3 414.3 274 409.8C319.7 405.3 365.3 381.7 411.2 376.5C457 371.3 503 384.7 548.8 395.8C594.7 407 640.3 416 686 411.3C731.7 406.7 777.3 388.3 823 376.7C868.7 365 914.3 360 937.2 357.5L960 355L960 541L937.2 541C914.3 541 868.7 541 823 541C777.3 541 731.7 541 686 541C640.3 541 594.7 541 548.8 541C503 541 457 541 411.2 541C365.3 541 319.7 541 274 541C228.3 541 182.7 541 137 541C91.3 541 45.7 541 22.8 541L0 541Z" fill="#6145c9"></path><path d="M0 427L22.8 427.2C45.7 427.3 91.3 427.7 137 425.3C182.7 423 228.3 418 274 419.5C319.7 421 365.3 429 411.2 426.8C457 424.7 503 412.3 548.8 408.2C594.7 404 640.3 408 686 408.2C731.7 408.3 777.3 404.7 823 408.7C868.7 412.7 914.3 424.3 937.2 430.2L960 436L960 541L937.2 541C914.3 541 868.7 541 823 541C777.3 541 731.7 541 686 541C640.3 541 594.7 541 548.8 541C503 541 457 541 411.2 541C365.3 541 319.7 541 274 541C228.3 541 182.7 541 137 541C91.3 541 45.7 541 22.8 541L0 541Z" fill="#3d3094"></path><path d="M0 435L22.8 440.2C45.7 445.3 91.3 455.7 137 456.3C182.7 457 228.3 448 274 448.7C319.7 449.3 365.3 459.7 411.2 464.3C457 469 503 468 548.8 468.8C594.7 469.7 640.3 472.3 686 472C731.7 471.7 777.3 468.3 823 464.8C868.7 461.3 914.3 457.7 937.2 455.8L960 454L960 541L937.2 541C914.3 541 868.7 541 823 541C777.3 541 731.7 541 686 541C640.3 541 594.7 541 548.8 541C503 541 457 541 411.2 541C365.3 541 319.7 541 274 541C228.3 541 182.7 541 137 541C91.3 541 45.7 541 22.8 541L0 541Z" fill="#1d1b62"></path><path d="M0 504L22.8 500C45.7 496 91.3 488 137 483.5C182.7 479 228.3 478 274 480.3C319.7 482.7 365.3 488.3 411.2 488.3C457 488.3 503 482.7 548.8 484.8C594.7 487 640.3 497 686 498.5C731.7 500 777.3 493 823 491C868.7 489 914.3 492 937.2 493.5L960 495L960 541L937.2 541C914.3 541 868.7 541 823 541C777.3 541 731.7 541 686 541C640.3 541 594.7 541 548.8 541C503 541 457 541 411.2 541C365.3 541 319.7 541 274 541C228.3 541 182.7 541 137 541C91.3 541 45.7 541 22.8 541L0 541Z" fill="#070033"></path></svg>